<?xml version="1.0" standalone="no"?>
<!DOCTYPE svg PUBLIC "-//W3C//DTD SVG 20010904//EN"
 "http://www.w3.org/TR/2001/REC-SVG-20010904/DTD/svg10.dtd">
<svg version="1.0" xmlns="http://www.w3.org/2000/svg"
 width="600.000000pt" height="600.000000pt" viewBox="0 0 600.000000 600.000000"
 preserveAspectRatio="xMidYMid meet">
<metadata>
Created by potrace 1.16, written by Peter Selinger 2001-2019
</metadata>
<g transform="translate(0.000000,600.000000) scale(0.100000,-0.100000)"
fill="#000000" stroke="none">
<path d="M2640 5981 c-85 -17 -180 -45 -235 -70 -11 -5 -73 -26 -139 -47 -65
-21 -137 -50 -160 -66 -22 -15 -45 -28 -49 -28 -18 0 -95 -40 -108 -56 -7 -9
-30 -27 -49 -39 -45 -29 -98 -81 -136 -131 -16 -21 -32 -41 -35 -44 -10 -8
-105 -162 -126 -205 -11 -22 -43 -80 -71 -130 -27 -49 -71 -142 -97 -205 -26
-63 -51 -124 -56 -135 -13 -28 -49 -152 -60 -203 -14 -70 -39 -287 -39 -344 0
-106 40 -268 66 -268 8 0 14 -10 14 -23 0 -55 92 -353 124 -402 20 -31 70 -34
85 -6 6 10 7 21 4 25 -3 3 -1 6 5 6 6 0 17 -11 25 -25 7 -14 38 -51 67 -81 30
-31 68 -81 85 -112 46 -86 103 -104 122 -39 5 18 12 27 15 21 4 -6 0 -24 -9
-40 -10 -17 -18 -64 -21 -116 -4 -77 -2 -92 22 -144 14 -31 25 -58 24 -59 -2
-1 -24 -7 -51 -14 -45 -11 -80 -31 -214 -123 -120 -83 -232 -209 -398 -453
-73 -106 -89 -136 -88 -165 1 -19 -9 -58 -22 -85 -31 -65 -51 -158 -59 -267
-6 -80 -4 -90 14 -108 12 -12 18 -25 15 -30 -9 -14 24 -184 39 -198 12 -12 7
-23 -34 -74 -110 -136 -236 -460 -315 -808 -36 -160 -75 -432 -82 -572 l-6
-118 1238 0 1238 0 54 26 c36 18 57 23 66 17 33 -27 115 -43 214 -43 114 0
127 11 35 31 -71 14 -249 92 -299 130 -21 15 -50 37 -65 49 -14 11 -43 50 -64
87 -35 62 -37 71 -38 158 0 51 4 99 10 106 6 8 16 34 23 59 7 25 17 50 23 57
5 7 6 18 2 25 -12 20 -5 137 12 189 17 55 74 112 127 129 78 25 196 -9 245
-71 29 -36 57 -37 137 -4 47 19 78 25 143 25 81 0 85 1 127 35 24 20 58 40 77
46 96 28 245 -67 313 -198 20 -39 33 -53 49 -53 29 0 58 -49 89 -147 34 -106
42 -185 27 -258 -29 -138 -82 -213 -191 -266 -98 -48 -148 -65 -244 -79 -101
-15 -164 -30 -171 -41 -3 -5 285 -9 650 -9 l656 0 0 63 c0 140 -98 551 -175
732 -7 17 -16 41 -20 55 -13 43 -80 172 -131 252 -92 145 -268 390 -301 419
l-33 29 25 50 c35 68 32 105 -15 203 -67 142 -168 275 -325 432 -134 133 -202
190 -275 229 l-62 33 37 22 c20 11 40 21 44 21 16 0 100 81 151 145 l52 65 88
0 c102 0 214 19 282 49 65 28 118 84 161 173 32 65 37 85 37 146 0 47 -7 88
-20 121 -11 28 -17 58 -14 66 4 9 -1 24 -11 35 -21 23 -12 60 15 60 35 0 122
170 177 343 4 12 16 17 39 17 43 0 53 23 90 195 22 102 28 157 29 255 0 124 0
127 -36 200 -47 97 -64 139 -90 225 -18 61 -72 208 -99 270 -27 62 -86 183
-100 205 -39 59 -84 125 -89 130 -4 3 -33 36 -66 74 -56 65 -349 324 -425 376
-19 13 -37 27 -40 30 -12 16 -129 81 -169 95 -34 12 -46 13 -52 3 -5 -8 -23
-5 -66 14 -32 14 -69 29 -83 33 -14 4 -29 11 -35 15 -5 4 -37 13 -70 19 -33 7
-85 23 -116 36 -118 52 -173 59 -479 61 -240 2 -300 0 -380 -15z m1463 -1682
c58 -176 117 -460 117 -567 0 -29 -3 -33 -17 -27 -144 60 -303 86 -415 67 -40
-7 -83 -15 -96 -19 -22 -5 -22 -4 5 23 16 16 43 47 61 69 l32 40 0 -38 c0 -36
1 -37 40 -37 37 0 41 3 74 60 81 137 140 310 151 438 4 46 11 80 15 75 4 -4
19 -42 33 -84z m-1098 -589 c50 -10 110 -22 134 -25 31 -5 45 -13 48 -26 3
-12 14 -19 28 -19 28 0 47 -22 39 -44 -5 -13 1 -16 38 -16 63 0 189 34 237 64
22 14 54 26 71 26 16 0 64 9 106 21 64 17 97 20 193 17 115 -5 152 -13 264
-60 55 -24 56 -30 31 -141 -20 -87 -31 -111 -78 -160 -20 -21 -36 -43 -36 -48
0 -5 33 -9 74 -9 l74 0 61 52 c34 28 61 54 61 57 1 3 16 24 34 45 32 37 35 38
51 23 9 -9 27 -17 39 -17 15 0 40 -18 68 -48 62 -67 110 -190 112 -288 0 -65
-3 -76 -39 -139 -49 -84 -94 -117 -191 -140 -82 -19 -234 -34 -234 -23 0 4 17
47 38 95 21 48 51 128 66 177 26 83 28 116 8 116 -9 0 -72 -128 -72 -144 0 -5
-32 -73 -71 -152 -58 -115 -85 -158 -139 -217 -61 -65 -81 -80 -192 -134 -184
-92 -293 -137 -368 -154 -25 -5 -69 -17 -98 -26 -46 -14 -61 -14 -105 -4 -101
25 -154 45 -337 128 -217 100 -292 143 -380 218 -36 30 -70 55 -76 55 -6 0
-22 15 -37 33 -21 27 -39 36 -84 47 -292 64 -441 214 -404 407 19 98 67 174
142 224 32 22 46 26 85 21 30 -3 49 -1 53 7 13 21 53 -3 65 -40 14 -44 51 -53
66 -15 5 14 17 26 25 26 28 0 89 37 130 79 41 43 94 59 80 24 -23 -56 -29
-101 -29 -218 -1 -143 8 -205 28 -205 8 0 17 -7 20 -15 5 -13 20 -15 73 -13
39 2 67 7 65 13 -1 6 12 12 30 15 30 5 34 10 46 55 18 71 20 298 3 357 -17 59
-26 67 -91 75 l-52 6 34 28 c75 65 103 67 293 29z m-267 -346 c21 -6 22 -10
17 -68 -10 -98 -20 -116 -66 -116 -21 0 -41 5 -45 11 -3 6 -9 49 -13 95 l-7
84 46 0 c25 0 55 -3 68 -6z m755 -1038 c3 -7 1 -18 -3 -22 -5 -5 -16 -52 -25
-104 -9 -52 -27 -149 -40 -215 -13 -66 -26 -140 -30 -165 -11 -74 -42 -197
-77 -306 -25 -80 -37 -105 -55 -113 -19 -9 -25 -8 -30 7 -64 179 -215 445
-359 635 -41 53 -73 97 -70 97 2 0 23 -11 47 -24 150 -83 337 -89 416 -14 37
36 71 110 75 164 3 33 7 39 33 46 17 4 46 11 65 16 48 14 47 14 53 -2z"/>
<path d="M3723 3602 c-62 -19 -85 -106 -87 -332 -1 -177 2 -186 80 -196 30 -3
70 -2 87 3 27 8 32 13 29 36 -2 18 2 27 11 27 32 0 39 28 38 163 0 158 -21
269 -54 292 -22 15 -65 18 -104 7z m86 -339 c-2 -90 -10 -116 -39 -123 -47
-12 -58 -2 -66 56 -3 30 -3 70 0 89 7 34 8 35 56 35 l50 0 -1 -57z"/>
<path d="M3905 5948 c-102 -29 -119 -46 -65 -68 26 -11 43 -10 103 3 124 28
133 28 218 17 100 -14 172 -31 299 -72 133 -42 142 -46 265 -109 137 -69 230
-129 319 -204 82 -70 216 -228 216 -255 0 -15 7 -20 25 -20 69 0 -16 146 -187
320 -67 68 -200 157 -337 226 -136 68 -224 99 -421 151 -140 36 -326 41 -435
11z"/>
</g>
</svg>
